<svg width="20" height="20" viewBox="0 0 20 20" fill="none" xmlns="http://www.w3.org/2000/svg">
<g id="camera-02">
<g id="Icon">
<path d="M1.66667 6.41814C1.66667 5.17468 2.67469 4.16666 3.91815 4.16666C4.56422 4.16666 5.13781 3.75324 5.34211 3.14032L5.41667 2.91666C5.45183 2.81118 5.46941 2.75844 5.48821 2.71166C5.72837 2.11426 6.29116 1.70863 6.93385 1.6697C6.98418 1.66666 7.03977 1.66666 7.15095 1.66666H12.8491C12.9602 1.66666 13.0158 1.66666 13.0662 1.6697C13.7088 1.70863 14.2716 2.11426 14.5118 2.71166C14.5306 2.75844 14.5482 2.81118 14.5833 2.91666L14.6579 3.14032C14.8622 3.75324 15.4358 4.16666 16.0819 4.16666C17.3253 4.16666 18.3333 5.17468 18.3333 6.41814V13.5C18.3333 14.9001 18.3333 15.6002 18.0608 16.135C17.8212 16.6054 17.4387 16.9878 16.9683 17.2275C16.4335 17.5 15.7335 17.5 14.3333 17.5H5.66667C4.26654 17.5 3.56647 17.5 3.03169 17.2275C2.56129 16.9878 2.17883 16.6054 1.93915 16.135C1.66667 15.6002 1.66667 14.9001 1.66667 13.5V6.41814Z" stroke="white" stroke-width="1.5" stroke-linecap="round" stroke-linejoin="round"/>
<path d="M10 13.75C12.0711 13.75 13.75 12.0711 13.75 9.99999C13.75 7.92892 12.0711 6.24999 10 6.24999C7.92893 6.24999 6.25 7.92892 6.25 9.99999C6.25 12.0711 7.92893 13.75 10 13.75Z" stroke="white" stroke-width="1.5" stroke-linecap="round" stroke-linejoin="round"/>
</g>
</g>
</svg>
