<svg width="18" height="13" viewBox="0 0 18 13" fill="none" xmlns="http://www.w3.org/2000/svg">
<path id="Wifi" fill-rule="evenodd" clip-rule="evenodd" d="M8.83918 3.06735C11.3057 3.06745 13.678 3.96498 15.4656 5.57443C15.6002 5.69869 15.8154 5.69712 15.9479 5.57092L17.2347 4.3411C17.3018 4.27709 17.3393 4.19038 17.3387 4.10017C17.3382 4.00996 17.2997 3.92367 17.2317 3.86041C12.5398 -0.397806 5.13779 -0.397806 0.445878 3.86041C0.377912 3.92363 0.339349 4.00988 0.338722 4.1001C0.338096 4.19031 0.375457 4.27704 0.442538 4.3411L1.72968 5.57092C1.86217 5.69731 2.0775 5.69888 2.21203 5.57443C3.99987 3.96488 6.37238 3.06735 8.83918 3.06735ZM8.83741 7.17524C10.1835 7.17516 11.4816 7.67327 12.4794 8.57279C12.6143 8.70045 12.8269 8.69768 12.9585 8.56655L14.2351 7.28238C14.3024 7.21502 14.3397 7.12364 14.3387 7.02869C14.3377 6.93373 14.2986 6.84313 14.23 6.77715C11.1915 3.96328 6.48594 3.96328 3.44743 6.77715C3.37879 6.84313 3.33963 6.93378 3.33873 7.02876C3.33783 7.12375 3.37526 7.21512 3.44264 7.28238L4.71891 8.56655C4.85047 8.69768 5.06306 8.70045 5.19802 8.57279C6.19516 7.67386 7.4922 7.1758 8.83741 7.17524ZM11.3386 9.8944C11.3406 9.99694 11.3038 10.0958 11.2371 10.1676L9.07838 12.557C9.0151 12.6272 8.92883 12.6667 8.83881 12.6667C8.74879 12.6667 8.66252 12.6272 8.59924 12.557L6.4402 10.1676C6.3735 10.0958 6.33681 9.99686 6.33879 9.89431C6.34077 9.79177 6.38124 9.69466 6.45065 9.62592C7.82926 8.34702 9.84836 8.34702 11.227 9.62592C11.2963 9.69472 11.3367 9.79185 11.3386 9.8944Z" fill="#141E0D"/>
</svg>
